<svg role="img" aria-label="A more detailed description here to use as alt text
More alt text follows" width="296" height="272" viewBox="0 0 222.43 204.43" xmlns="http://www.w3.org/2000/svg"><title>A more detailed description here to use as alt text
More alt text follows</title><desc>digraph {
   A -&gt; B
   B -&gt; C
   C -&gt; D
   D -&gt; A
}</desc><g class="graph"><path fill="#fff" stroke="transparent" d="M0 204.43V0h222.43v204.43H0z"></path><g class="node" transform="translate(4 200.43)"><ellipse fill="none" stroke="#000" cx="107.21" cy="-18" rx="27" ry="18"></ellipse><text text-anchor="middle" x="107.21" y="-13.8" font-family="Times,serif" font-size="14">A</text></g><g class="node" transform="translate(4 200.43)"><ellipse fill="none" stroke="#000" cx="27" cy="-98.21" rx="27" ry="18"></ellipse><text text-anchor="middle" x="27" y="-94.01" font-family="Times,serif" font-size="14">B</text></g><g class="edge" transform="translate(4 200.43)"><path fill="none" stroke="#000" d="M92.13-33.09c-12.1-12.1-29.26-29.26-42.93-42.92"></path><path stroke="#000" d="M46.62-73.65l-4.6-9.54 9.55 4.59-4.95 4.95z"></path></g><g class="node" transform="translate(4 200.43)"><ellipse fill="none" stroke="#000" cx="107.21" cy="-178.43" rx="27" ry="18"></ellipse><text text-anchor="middle" x="107.21" y="-174.23" font-family="Times,serif" font-size="14">C</text></g><g class="edge" transform="translate(4 200.43)"><path fill="none" stroke="#000" d="M42.09-113.3c12.1-12.1 29.26-29.26 42.92-42.93"></path><path stroke="#000" d="M82.65-158.81l9.54-4.6-4.59 9.55-4.95-4.95z"></path></g><g class="node" transform="translate(4 200.43)"><ellipse fill="none" stroke="#000" cx="187.43" cy="-98.21" rx="27" ry="18"></ellipse><text text-anchor="middle" x="187.43" y="-94.01" font-family="Times,serif" font-size="14">D</text></g><g class="edge" transform="translate(4 200.43)"><path fill="none" stroke="#000" d="M122.3-163.34l42.93 42.93"></path><path stroke="#000" d="M167.81-122.78l4.6 9.55-9.55-4.6 4.95-4.95z"></path></g><g class="edge" transform="translate(4 200.43)"><path fill="none" stroke="#000" d="M172.34-83.13L129.41-40.2"></path><path stroke="#000" d="M131.78-37.62l-9.55 4.6 4.6-9.55 4.95 4.95z"></path></g></g></svg>
